<mxfile host="Electron" agent="Mozilla/5.0 (X11; Linux x86_64) AppleWebKit/537.36 (KHTML, like Gecko) draw.io/24.7.17 Chrome/128.0.6613.36 Electron/32.0.1 Safari/537.36" version="24.7.17">
  <diagram id="C5RBs43oDa-KdzZeNtuy" name="Page-1">
    <mxGraphModel dx="950" dy="646" grid="1" gridSize="10" guides="1" tooltips="1" connect="1" arrows="1" fold="1" page="1" pageScale="1" pageWidth="827" pageHeight="1169" math="0" shadow="0">
      <root>
        <mxCell id="WIyWlLk6GJQsqaUBKTNV-0" />
        <mxCell id="WIyWlLk6GJQsqaUBKTNV-1" parent="WIyWlLk6GJQsqaUBKTNV-0" />
        <mxCell id="WIyWlLk6GJQsqaUBKTNV-3" value="start" style="rounded=1;whiteSpace=wrap;html=1;fontSize=12;glass=0;strokeWidth=2;shadow=0;" parent="WIyWlLk6GJQsqaUBKTNV-1" vertex="1">
          <mxGeometry x="251.5" y="150" width="120" height="40" as="geometry" />
        </mxCell>
        <mxCell id="NejKWs3AC0AdlwhUtmeb-6" style="edgeStyle=orthogonalEdgeStyle;rounded=0;orthogonalLoop=1;jettySize=auto;html=1;strokeWidth=2;" parent="WIyWlLk6GJQsqaUBKTNV-1" source="NejKWs3AC0AdlwhUtmeb-3" target="NejKWs3AC0AdlwhUtmeb-5" edge="1">
          <mxGeometry relative="1" as="geometry" />
        </mxCell>
        <mxCell id="NejKWs3AC0AdlwhUtmeb-3" value="Display prompt" style="strokeWidth=2;html=1;shape=mxgraph.flowchart.display;whiteSpace=wrap;" parent="WIyWlLk6GJQsqaUBKTNV-1" vertex="1">
          <mxGeometry x="261.5" y="230" width="100" height="60" as="geometry" />
        </mxCell>
        <mxCell id="NejKWs3AC0AdlwhUtmeb-4" style="edgeStyle=orthogonalEdgeStyle;rounded=0;orthogonalLoop=1;jettySize=auto;html=1;entryX=0.5;entryY=0;entryDx=0;entryDy=0;entryPerimeter=0;strokeWidth=2;" parent="WIyWlLk6GJQsqaUBKTNV-1" source="WIyWlLk6GJQsqaUBKTNV-3" target="NejKWs3AC0AdlwhUtmeb-3" edge="1">
          <mxGeometry relative="1" as="geometry" />
        </mxCell>
        <mxCell id="NejKWs3AC0AdlwhUtmeb-5" value="&lt;div&gt;&lt;br&gt;&lt;/div&gt;manual input&lt;div&gt;from user&lt;/div&gt;" style="html=1;strokeWidth=2;shape=manualInput;whiteSpace=wrap;rounded=1;size=26;arcSize=11;" parent="WIyWlLk6GJQsqaUBKTNV-1" vertex="1">
          <mxGeometry x="256.5" y="330" width="110" height="70" as="geometry" />
        </mxCell>
        <mxCell id="NejKWs3AC0AdlwhUtmeb-13" value="&amp;nbsp;yes&amp;nbsp;" style="edgeStyle=orthogonalEdgeStyle;rounded=0;orthogonalLoop=1;jettySize=auto;html=1;entryX=1;entryY=0.5;entryDx=0;entryDy=0;entryPerimeter=0;strokeWidth=2;" parent="WIyWlLk6GJQsqaUBKTNV-1" source="NejKWs3AC0AdlwhUtmeb-7" target="NejKWs3AC0AdlwhUtmeb-24" edge="1">
          <mxGeometry x="-0.12" relative="1" as="geometry">
            <mxPoint as="offset" />
          </mxGeometry>
        </mxCell>
        <mxCell id="NejKWs3AC0AdlwhUtmeb-17" style="edgeStyle=orthogonalEdgeStyle;rounded=0;orthogonalLoop=1;jettySize=auto;html=1;entryX=0;entryY=0.5;entryDx=0;entryDy=0;strokeWidth=2;" parent="WIyWlLk6GJQsqaUBKTNV-1" source="NejKWs3AC0AdlwhUtmeb-7" target="NejKWs3AC0AdlwhUtmeb-16" edge="1">
          <mxGeometry relative="1" as="geometry" />
        </mxCell>
        <mxCell id="NejKWs3AC0AdlwhUtmeb-37" value="&amp;nbsp;no&amp;nbsp;" style="edgeStyle=orthogonalEdgeStyle;rounded=0;orthogonalLoop=1;jettySize=auto;html=1;" parent="WIyWlLk6GJQsqaUBKTNV-1" source="NejKWs3AC0AdlwhUtmeb-7" target="NejKWs3AC0AdlwhUtmeb-16" edge="1">
          <mxGeometry x="-0.1" relative="1" as="geometry">
            <mxPoint as="offset" />
          </mxGeometry>
        </mxCell>
        <mxCell id="NejKWs3AC0AdlwhUtmeb-7" value="input is ctrl+D&lt;br&gt;EOF ?" style="strokeWidth=2;html=1;shape=mxgraph.flowchart.decision;whiteSpace=wrap;" parent="WIyWlLk6GJQsqaUBKTNV-1" vertex="1">
          <mxGeometry x="241.5" y="450" width="140" height="90" as="geometry" />
        </mxCell>
        <mxCell id="NejKWs3AC0AdlwhUtmeb-8" value="end" style="rounded=1;whiteSpace=wrap;html=1;fontSize=12;glass=0;strokeWidth=2;shadow=0;" parent="WIyWlLk6GJQsqaUBKTNV-1" vertex="1">
          <mxGeometry x="61.5" y="665" width="110" height="40" as="geometry" />
        </mxCell>
        <mxCell id="NejKWs3AC0AdlwhUtmeb-15" style="edgeStyle=orthogonalEdgeStyle;rounded=0;orthogonalLoop=1;jettySize=auto;html=1;strokeWidth=2;" parent="WIyWlLk6GJQsqaUBKTNV-1" source="NejKWs3AC0AdlwhUtmeb-12" target="NejKWs3AC0AdlwhUtmeb-8" edge="1">
          <mxGeometry relative="1" as="geometry" />
        </mxCell>
        <mxCell id="NejKWs3AC0AdlwhUtmeb-12" value="exit program" style="rounded=0;whiteSpace=wrap;html=1;strokeWidth=2;" parent="WIyWlLk6GJQsqaUBKTNV-1" vertex="1">
          <mxGeometry x="61.5" y="570" width="110" height="50" as="geometry" />
        </mxCell>
        <mxCell id="NejKWs3AC0AdlwhUtmeb-14" style="edgeStyle=orthogonalEdgeStyle;rounded=0;orthogonalLoop=1;jettySize=auto;html=1;entryX=0.5;entryY=0;entryDx=0;entryDy=0;entryPerimeter=0;strokeWidth=2;" parent="WIyWlLk6GJQsqaUBKTNV-1" source="NejKWs3AC0AdlwhUtmeb-5" target="NejKWs3AC0AdlwhUtmeb-7" edge="1">
          <mxGeometry relative="1" as="geometry" />
        </mxCell>
        <mxCell id="NejKWs3AC0AdlwhUtmeb-19" style="edgeStyle=orthogonalEdgeStyle;rounded=0;orthogonalLoop=1;jettySize=auto;html=1;entryX=0.5;entryY=0;entryDx=0;entryDy=0;strokeWidth=2;" parent="WIyWlLk6GJQsqaUBKTNV-1" source="NejKWs3AC0AdlwhUtmeb-16" target="NejKWs3AC0AdlwhUtmeb-18" edge="1">
          <mxGeometry relative="1" as="geometry" />
        </mxCell>
        <mxCell id="NejKWs3AC0AdlwhUtmeb-16" value="clean input&lt;div&gt;(remove \n)&lt;/div&gt;" style="rounded=0;whiteSpace=wrap;html=1;strokeWidth=2;" parent="WIyWlLk6GJQsqaUBKTNV-1" vertex="1">
          <mxGeometry x="431.5" y="470" width="110" height="50" as="geometry" />
        </mxCell>
        <mxCell id="NejKWs3AC0AdlwhUtmeb-18" value="fork process" style="rounded=0;whiteSpace=wrap;html=1;strokeWidth=2;" parent="WIyWlLk6GJQsqaUBKTNV-1" vertex="1">
          <mxGeometry x="431.5" y="550" width="110" height="50" as="geometry" />
        </mxCell>
        <mxCell id="NejKWs3AC0AdlwhUtmeb-40" value="&amp;nbsp;no&amp;nbsp;" style="edgeStyle=orthogonalEdgeStyle;rounded=0;orthogonalLoop=1;jettySize=auto;html=1;entryX=0.5;entryY=0;entryDx=0;entryDy=0;strokeWidth=2;" parent="WIyWlLk6GJQsqaUBKTNV-1" source="NejKWs3AC0AdlwhUtmeb-20" target="NejKWs3AC0AdlwhUtmeb-39" edge="1">
          <mxGeometry x="-0.3057" relative="1" as="geometry">
            <mxPoint as="offset" />
          </mxGeometry>
        </mxCell>
        <mxCell id="NejKWs3AC0AdlwhUtmeb-20" value="fork fail ?" style="strokeWidth=2;html=1;shape=mxgraph.flowchart.decision;whiteSpace=wrap;" parent="WIyWlLk6GJQsqaUBKTNV-1" vertex="1">
          <mxGeometry x="416.5" y="630" width="140" height="90" as="geometry" />
        </mxCell>
        <mxCell id="NejKWs3AC0AdlwhUtmeb-21" style="edgeStyle=orthogonalEdgeStyle;rounded=0;orthogonalLoop=1;jettySize=auto;html=1;entryX=0.5;entryY=0;entryDx=0;entryDy=0;entryPerimeter=0;strokeWidth=2;" parent="WIyWlLk6GJQsqaUBKTNV-1" source="NejKWs3AC0AdlwhUtmeb-18" target="NejKWs3AC0AdlwhUtmeb-20" edge="1">
          <mxGeometry relative="1" as="geometry" />
        </mxCell>
        <mxCell id="NejKWs3AC0AdlwhUtmeb-25" style="edgeStyle=orthogonalEdgeStyle;rounded=0;orthogonalLoop=1;jettySize=auto;html=1;entryX=0.5;entryY=0;entryDx=0;entryDy=0;strokeWidth=2;" parent="WIyWlLk6GJQsqaUBKTNV-1" source="NejKWs3AC0AdlwhUtmeb-24" target="NejKWs3AC0AdlwhUtmeb-12" edge="1">
          <mxGeometry relative="1" as="geometry" />
        </mxCell>
        <mxCell id="NejKWs3AC0AdlwhUtmeb-24" value="Display goodbye message" style="strokeWidth=2;html=1;shape=mxgraph.flowchart.display;whiteSpace=wrap;" parent="WIyWlLk6GJQsqaUBKTNV-1" vertex="1">
          <mxGeometry x="54" y="465" width="125" height="60" as="geometry" />
        </mxCell>
        <mxCell id="NejKWs3AC0AdlwhUtmeb-26" value="Display fork error message" style="strokeWidth=2;html=1;shape=mxgraph.flowchart.display;whiteSpace=wrap;" parent="WIyWlLk6GJQsqaUBKTNV-1" vertex="1">
          <mxGeometry x="624" y="645" width="125" height="60" as="geometry" />
        </mxCell>
        <mxCell id="NejKWs3AC0AdlwhUtmeb-27" style="edgeStyle=orthogonalEdgeStyle;rounded=0;orthogonalLoop=1;jettySize=auto;html=1;entryX=0;entryY=0.5;entryDx=0;entryDy=0;entryPerimeter=0;strokeWidth=2;" parent="WIyWlLk6GJQsqaUBKTNV-1" source="NejKWs3AC0AdlwhUtmeb-20" target="NejKWs3AC0AdlwhUtmeb-26" edge="1">
          <mxGeometry relative="1" as="geometry" />
        </mxCell>
        <mxCell id="NejKWs3AC0AdlwhUtmeb-35" value="&amp;nbsp;yes&amp;nbsp;" style="edgeLabel;html=1;align=center;verticalAlign=middle;resizable=0;points=[];" parent="NejKWs3AC0AdlwhUtmeb-27" vertex="1" connectable="0">
          <mxGeometry x="-0.2997" y="3" relative="1" as="geometry">
            <mxPoint x="4" y="3" as="offset" />
          </mxGeometry>
        </mxCell>
        <mxCell id="NejKWs3AC0AdlwhUtmeb-39" value="execute&lt;div&gt;command&lt;/div&gt;" style="rounded=0;whiteSpace=wrap;html=1;strokeWidth=2;" parent="WIyWlLk6GJQsqaUBKTNV-1" vertex="1">
          <mxGeometry x="274" y="710" width="110" height="50" as="geometry" />
        </mxCell>
        <mxCell id="NejKWs3AC0AdlwhUtmeb-59" value="yes" style="edgeStyle=orthogonalEdgeStyle;rounded=0;orthogonalLoop=1;jettySize=auto;html=1;entryX=0.5;entryY=0;entryDx=0;entryDy=0;strokeWidth=2;" parent="WIyWlLk6GJQsqaUBKTNV-1" source="NejKWs3AC0AdlwhUtmeb-41" target="NejKWs3AC0AdlwhUtmeb-58" edge="1">
          <mxGeometry relative="1" as="geometry" />
        </mxCell>
        <mxCell id="NejKWs3AC0AdlwhUtmeb-41" value="command found ?" style="strokeWidth=2;html=1;shape=mxgraph.flowchart.decision;whiteSpace=wrap;" parent="WIyWlLk6GJQsqaUBKTNV-1" vertex="1">
          <mxGeometry x="259" y="810" width="140" height="90" as="geometry" />
        </mxCell>
        <mxCell id="NejKWs3AC0AdlwhUtmeb-42" style="edgeStyle=orthogonalEdgeStyle;rounded=0;orthogonalLoop=1;jettySize=auto;html=1;entryX=0.5;entryY=0;entryDx=0;entryDy=0;entryPerimeter=0;" parent="WIyWlLk6GJQsqaUBKTNV-1" source="NejKWs3AC0AdlwhUtmeb-39" target="NejKWs3AC0AdlwhUtmeb-41" edge="1">
          <mxGeometry relative="1" as="geometry" />
        </mxCell>
        <mxCell id="NejKWs3AC0AdlwhUtmeb-49" style="edgeStyle=orthogonalEdgeStyle;rounded=0;orthogonalLoop=1;jettySize=auto;html=1;entryX=0;entryY=0.5;entryDx=0;entryDy=0;strokeWidth=2;" parent="WIyWlLk6GJQsqaUBKTNV-1" source="NejKWs3AC0AdlwhUtmeb-45" target="NejKWs3AC0AdlwhUtmeb-48" edge="1">
          <mxGeometry relative="1" as="geometry" />
        </mxCell>
        <mxCell id="NejKWs3AC0AdlwhUtmeb-45" value="Display error (command&lt;div&gt;not found)&lt;/div&gt;" style="strokeWidth=2;html=1;shape=mxgraph.flowchart.display;whiteSpace=wrap;" parent="WIyWlLk6GJQsqaUBKTNV-1" vertex="1">
          <mxGeometry x="464" y="825" width="125" height="60" as="geometry" />
        </mxCell>
        <mxCell id="NejKWs3AC0AdlwhUtmeb-46" style="edgeStyle=orthogonalEdgeStyle;rounded=0;orthogonalLoop=1;jettySize=auto;html=1;entryX=0;entryY=0.5;entryDx=0;entryDy=0;entryPerimeter=0;strokeWidth=2;" parent="WIyWlLk6GJQsqaUBKTNV-1" source="NejKWs3AC0AdlwhUtmeb-41" target="NejKWs3AC0AdlwhUtmeb-45" edge="1">
          <mxGeometry relative="1" as="geometry" />
        </mxCell>
        <mxCell id="NejKWs3AC0AdlwhUtmeb-47" value="&amp;nbsp;no&amp;nbsp;" style="edgeLabel;html=1;align=center;verticalAlign=middle;resizable=0;points=[];" parent="NejKWs3AC0AdlwhUtmeb-46" vertex="1" connectable="0">
          <mxGeometry x="-0.2524" relative="1" as="geometry">
            <mxPoint as="offset" />
          </mxGeometry>
        </mxCell>
        <mxCell id="NejKWs3AC0AdlwhUtmeb-48" value="Exit child process" style="rounded=0;whiteSpace=wrap;html=1;strokeWidth=2;" parent="WIyWlLk6GJQsqaUBKTNV-1" vertex="1">
          <mxGeometry x="631.5" y="830" width="110" height="50" as="geometry" />
        </mxCell>
        <mxCell id="NejKWs3AC0AdlwhUtmeb-56" style="edgeStyle=orthogonalEdgeStyle;rounded=0;orthogonalLoop=1;jettySize=auto;html=1;entryX=1;entryY=0.5;entryDx=0;entryDy=0;entryPerimeter=0;strokeWidth=2;" parent="WIyWlLk6GJQsqaUBKTNV-1" source="NejKWs3AC0AdlwhUtmeb-26" target="NejKWs3AC0AdlwhUtmeb-3" edge="1">
          <mxGeometry relative="1" as="geometry">
            <Array as="points">
              <mxPoint x="774" y="675" />
              <mxPoint x="774" y="260" />
            </Array>
          </mxGeometry>
        </mxCell>
        <mxCell id="NejKWs3AC0AdlwhUtmeb-57" style="edgeStyle=orthogonalEdgeStyle;rounded=0;orthogonalLoop=1;jettySize=auto;html=1;entryX=1;entryY=0.5;entryDx=0;entryDy=0;entryPerimeter=0;strokeWidth=2;" parent="WIyWlLk6GJQsqaUBKTNV-1" source="NejKWs3AC0AdlwhUtmeb-48" target="NejKWs3AC0AdlwhUtmeb-3" edge="1">
          <mxGeometry relative="1" as="geometry">
            <Array as="points">
              <mxPoint x="774" y="855" />
              <mxPoint x="774" y="260" />
            </Array>
          </mxGeometry>
        </mxCell>
        <mxCell id="NejKWs3AC0AdlwhUtmeb-58" value="execute command&amp;nbsp;&lt;div&gt;in child process&amp;nbsp;&lt;/div&gt;" style="rounded=0;whiteSpace=wrap;html=1;strokeWidth=2;" parent="WIyWlLk6GJQsqaUBKTNV-1" vertex="1">
          <mxGeometry x="249" y="960" width="160" height="60" as="geometry" />
        </mxCell>
        <mxCell id="NejKWs3AC0AdlwhUtmeb-67" style="edgeStyle=orthogonalEdgeStyle;rounded=0;orthogonalLoop=1;jettySize=auto;html=1;dashed=1;strokeWidth=2;" parent="WIyWlLk6GJQsqaUBKTNV-1" source="NejKWs3AC0AdlwhUtmeb-66" target="NejKWs3AC0AdlwhUtmeb-58" edge="1">
          <mxGeometry relative="1" as="geometry" />
        </mxCell>
        <mxCell id="NejKWs3AC0AdlwhUtmeb-66" value="&lt;span style=&quot;background-color: initial;&quot;&gt;parent process&amp;nbsp;&lt;/span&gt;&lt;br&gt;&lt;span style=&quot;background-color: initial;&quot;&gt;is waiting&amp;nbsp;&lt;/span&gt;&lt;br&gt;&lt;span style=&quot;background-color: initial;&quot;&gt;until the end&amp;nbsp;&lt;/span&gt;&lt;br&gt;&lt;span style=&quot;background-color: initial;&quot;&gt;of child process&amp;nbsp;&lt;/span&gt;&lt;div&gt;&lt;div&gt;execution&amp;nbsp;&lt;/div&gt;&lt;/div&gt;" style="strokeWidth=2;html=1;shape=mxgraph.flowchart.annotation_1;align=right;pointerEvents=1;flipH=1;dashed=1;" parent="WIyWlLk6GJQsqaUBKTNV-1" vertex="1">
          <mxGeometry x="144" y="890" width="20" height="100" as="geometry" />
        </mxCell>
        <mxCell id="NejKWs3AC0AdlwhUtmeb-68" style="edgeStyle=orthogonalEdgeStyle;rounded=0;orthogonalLoop=1;jettySize=auto;html=1;entryX=1;entryY=0.5;entryDx=0;entryDy=0;entryPerimeter=0;strokeWidth=2;" parent="WIyWlLk6GJQsqaUBKTNV-1" source="NejKWs3AC0AdlwhUtmeb-58" target="NejKWs3AC0AdlwhUtmeb-3" edge="1">
          <mxGeometry relative="1" as="geometry">
            <Array as="points">
              <mxPoint x="774" y="990" />
              <mxPoint x="774" y="260" />
            </Array>
          </mxGeometry>
        </mxCell>
        <mxCell id="NejKWs3AC0AdlwhUtmeb-70" value="&lt;h1&gt;Simple shell - basic prompt flowchart&lt;/h1&gt;" style="rounded=0;whiteSpace=wrap;html=1;" parent="WIyWlLk6GJQsqaUBKTNV-1" vertex="1">
          <mxGeometry x="44" y="40" width="756" height="40" as="geometry" />
        </mxCell>
      </root>
    </mxGraphModel>
  </diagram>
</mxfile>
